<?xml version="1.0" standalone="no"?>
<!DOCTYPE svg PUBLIC "-//W3C//DTD SVG 20010904//EN"
 "http://www.w3.org/TR/2001/REC-SVG-20010904/DTD/svg10.dtd">
<svg version="1.0" xmlns="http://www.w3.org/2000/svg"
 width="1024.000000pt" height="1024.000000pt" viewBox="0 0 1024.000000 1024.000000"
 preserveAspectRatio="xMidYMid meet">
<metadata>
Created by potrace 1.14, written by Peter Selinger 2001-2017
</metadata>
<g transform="translate(0.000000,1024.000000) scale(0.100000,-0.100000)"
fill="#000000" stroke="none">
<path d="M1975 10225 c-55 -7 -143 -23 -195 -34 -52 -12 -106 -24 -120 -26
-14 -3 -54 -15 -90 -27 -379 -122 -712 -334 -975 -619 -89 -98 -110 -123 -181
-224 -228 -324 -354 -656 -401 -1055 -10 -82 -11 -6165 -1 -6240 15 -115 20
-148 39 -235 124 -573 476 -1083 969 -1404 233 -151 580 -289 820 -325 19 -3
45 -8 57 -10 12 -3 53 -8 90 -13 86 -10 6177 -11 6258 0 33 4 74 9 90 12 17 3
46 8 65 11 250 40 596 178 820 325 52 35 100 67 105 71 193 152 304 259 427
413 119 149 234 341 303 505 15 36 33 79 40 95 40 93 106 348 121 470 3 22 9
67 14 100 11 73 7 6203 -4 6260 -37 202 -50 262 -72 340 -53 188 -166 439
-262 583 -23 35 -42 65 -42 68 0 2 -6 12 -14 21 -8 10 -43 54 -77 98 -185 237
-428 442 -701 589 -162 88 -423 185 -578 215 -30 6 -64 12 -75 14 -11 3 -45 8
-75 12 -30 4 -66 10 -80 14 -14 3 -1409 6 -3100 7 -2484 1 -3094 -1 -3175 -11z"/>
</g>
</svg>
